<svg xmlns="http://www.w3.org/2000/svg" width="1240" height="540" viewBox="0 0 1240 540">
<rect width="1240" height="540" fill="#FFFFFF" />
<text x="40" y="40" fill="#17202A" font-family="Georgia, 'Times New Roman', serif" font-size="28" font-weight="700">Run-level variability by solver</text>
<text x="40" y="64" fill="#5C6773" font-family="'Helvetica Neue', Arial, sans-serif" font-size="13">Each point is a reviewed run. Boxes show the interquartile range across 24 runs per solver.</text>
<circle cx="1010" cy="59" r="5" fill="#1F6F78" />
<text x="1022" y="63" fill="#17202A" font-family="'Helvetica Neue', Arial, sans-serif" font-size="12">single</text>
<circle cx="1092" cy="59" r="5" fill="#B35B3E" />
<text x="1104" y="63" fill="#17202A" font-family="'Helvetica Neue', Arial, sans-serif" font-size="12">multi</text>
<rect x="40" y="96" width="370" height="390" rx="16" fill="#FFFFFF" stroke="#D8DEE7" />
<text x="58" y="126" fill="#17202A" font-family="Georgia, 'Times New Roman', serif" font-size="20" font-weight="700">A. Review score</text>
<text x="58" y="148" fill="#5C6773" font-family="'Helvetica Neue', Arial, sans-serif" font-size="12">Fixed scale: 2 to 10.</text>
<line x1="86" y1="452.0" x2="390" y2="452.0" stroke="#E9EDF3" />
<text x="78" y="456.0" fill="#5C6773" font-family="'Helvetica Neue', Arial, sans-serif" font-size="11" text-anchor="end">2</text>
<line x1="86" y1="381.0" x2="390" y2="381.0" stroke="#E9EDF3" />
<text x="78" y="385.0" fill="#5C6773" font-family="'Helvetica Neue', Arial, sans-serif" font-size="11" text-anchor="end">4</text>
<line x1="86" y1="310.0" x2="390" y2="310.0" stroke="#E9EDF3" />
<text x="78" y="314.0" fill="#5C6773" font-family="'Helvetica Neue', Arial, sans-serif" font-size="11" text-anchor="end">6</text>
<line x1="86" y1="239.0" x2="390" y2="239.0" stroke="#E9EDF3" />
<text x="78" y="243.0" fill="#5C6773" font-family="'Helvetica Neue', Arial, sans-serif" font-size="11" text-anchor="end">8</text>
<line x1="86" y1="168.0" x2="390" y2="168.0" stroke="#E9EDF3" />
<text x="78" y="172.0" fill="#5C6773" font-family="'Helvetica Neue', Arial, sans-serif" font-size="11" text-anchor="end">10</text>
<line x1="169.5" y1="260.29999999999995" x2="169.5" y2="185.75" stroke="#1F6F78" stroke-width="1.5" />
<rect x="147.5" y="195.5125" width="44" height="15.974999999999994" rx="8" fill="#E7F2F3" stroke="#1F6F78" stroke-width="1.5" />
<line x1="147.5" y1="201.72499999999997" x2="191.5" y2="201.72499999999997" stroke="#1F6F78" stroke-width="2" />
<line x1="157.5" y1="260.29999999999995" x2="181.5" y2="260.29999999999995" stroke="#1F6F78" stroke-width="1.5" />
<line x1="157.5" y1="185.75" x2="181.5" y2="185.75" stroke="#1F6F78" stroke-width="1.5" />
<circle cx="155.5" cy="217.70000000000002" r="3.1" fill="#1F6F78" opacity="0.72" />
<circle cx="159.5" cy="235.45000000000002" r="3.1" fill="#1F6F78" opacity="0.72" />
<circle cx="163.5" cy="246.1" r="3.1" fill="#1F6F78" opacity="0.72" />
<circle cx="167.5" cy="260.29999999999995" r="3.1" fill="#1F6F78" opacity="0.72" />
<circle cx="171.5" cy="203.5" r="3.1" fill="#1F6F78" opacity="0.72" />
<circle cx="175.5" cy="214.15000000000003" r="3.1" fill="#1F6F78" opacity="0.72" />
<circle cx="179.5" cy="210.59999999999997" r="3.1" fill="#1F6F78" opacity="0.72" />
<circle cx="183.5" cy="217.70000000000002" r="3.1" fill="#1F6F78" opacity="0.72" />
<circle cx="155.5" cy="207.04999999999998" r="3.1" fill="#1F6F78" opacity="0.72" />
<circle cx="159.5" cy="185.75" r="3.1" fill="#1F6F78" opacity="0.72" />
<circle cx="163.5" cy="192.84999999999997" r="3.1" fill="#1F6F78" opacity="0.72" />
<circle cx="167.5" cy="199.95000000000002" r="3.1" fill="#1F6F78" opacity="0.72" />
<circle cx="171.5" cy="196.40000000000003" r="3.1" fill="#1F6F78" opacity="0.72" />
<circle cx="175.5" cy="189.3" r="3.1" fill="#1F6F78" opacity="0.72" />
<circle cx="179.5" cy="199.95000000000002" r="3.1" fill="#1F6F78" opacity="0.72" />
<circle cx="183.5" cy="196.40000000000003" r="3.1" fill="#1F6F78" opacity="0.72" />
<circle cx="155.5" cy="210.59999999999997" r="3.1" fill="#1F6F78" opacity="0.72" />
<circle cx="159.5" cy="199.95000000000002" r="3.1" fill="#1F6F78" opacity="0.72" />
<circle cx="163.5" cy="207.04999999999998" r="3.1" fill="#1F6F78" opacity="0.72" />
<circle cx="167.5" cy="203.5" r="3.1" fill="#1F6F78" opacity="0.72" />
<circle cx="171.5" cy="196.40000000000003" r="3.1" fill="#1F6F78" opacity="0.72" />
<circle cx="175.5" cy="185.75" r="3.1" fill="#1F6F78" opacity="0.72" />
<circle cx="179.5" cy="192.84999999999997" r="3.1" fill="#1F6F78" opacity="0.72" />
<circle cx="183.5" cy="192.84999999999997" r="3.1" fill="#1F6F78" opacity="0.72" />
<line x1="306.4" y1="437.8" x2="306.4" y2="192.84999999999997" stroke="#B35B3E" stroke-width="1.5" />
<rect x="284.4" y="206.16249999999997" width="44" height="40.825000000000045" rx="8" fill="#F8EAE5" stroke="#B35B3E" stroke-width="1.5" />
<line x1="284.4" y1="215.92500000000004" x2="328.4" y2="215.92500000000004" stroke="#B35B3E" stroke-width="2" />
<line x1="294.4" y1="437.8" x2="318.4" y2="437.8" stroke="#B35B3E" stroke-width="1.5" />
<line x1="294.4" y1="192.84999999999997" x2="318.4" y2="192.84999999999997" stroke="#B35B3E" stroke-width="1.5" />
<circle cx="292.4" cy="239.0" r="3.1" fill="#B35B3E" opacity="0.72" />
<circle cx="296.4" cy="246.1" r="3.1" fill="#B35B3E" opacity="0.72" />
<circle cx="300.4" cy="242.54999999999998" r="3.1" fill="#B35B3E" opacity="0.72" />
<circle cx="304.4" cy="249.65" r="3.1" fill="#B35B3E" opacity="0.72" />
<circle cx="308.4" cy="214.15000000000003" r="3.1" fill="#B35B3E" opacity="0.72" />
<circle cx="312.4" cy="256.75" r="3.1" fill="#B35B3E" opacity="0.72" />
<circle cx="316.4" cy="221.25" r="3.1" fill="#B35B3E" opacity="0.72" />
<circle cx="320.4" cy="217.70000000000002" r="3.1" fill="#B35B3E" opacity="0.72" />
<circle cx="292.4" cy="210.59999999999997" r="3.1" fill="#B35B3E" opacity="0.72" />
<circle cx="296.4" cy="217.70000000000002" r="3.1" fill="#B35B3E" opacity="0.72" />
<circle cx="300.4" cy="214.15000000000003" r="3.1" fill="#B35B3E" opacity="0.72" />
<circle cx="304.4" cy="203.5" r="3.1" fill="#B35B3E" opacity="0.72" />
<circle cx="308.4" cy="203.5" r="3.1" fill="#B35B3E" opacity="0.72" />
<circle cx="312.4" cy="199.95000000000002" r="3.1" fill="#B35B3E" opacity="0.72" />
<circle cx="316.4" cy="210.59999999999997" r="3.1" fill="#B35B3E" opacity="0.72" />
<circle cx="320.4" cy="192.84999999999997" r="3.1" fill="#B35B3E" opacity="0.72" />
<circle cx="292.4" cy="437.8" r="3.1" fill="#B35B3E" opacity="0.72" />
<circle cx="296.4" cy="349.04999999999995" r="3.1" fill="#B35B3E" opacity="0.72" />
<circle cx="300.4" cy="338.4" r="3.1" fill="#B35B3E" opacity="0.72" />
<circle cx="304.4" cy="331.29999999999995" r="3.1" fill="#B35B3E" opacity="0.72" />
<circle cx="308.4" cy="207.04999999999998" r="3.1" fill="#B35B3E" opacity="0.72" />
<circle cx="312.4" cy="210.59999999999997" r="3.1" fill="#B35B3E" opacity="0.72" />
<circle cx="316.4" cy="203.5" r="3.1" fill="#B35B3E" opacity="0.72" />
<circle cx="320.4" cy="199.95000000000002" r="3.1" fill="#B35B3E" opacity="0.72" />
<rect x="40" y="96" width="370" height="390" rx="16" fill="none" stroke="#D8DEE7" />
<rect x="435" y="96" width="370" height="390" rx="16" fill="#FFFFFF" stroke="#D8DEE7" />
<text x="453" y="126" fill="#17202A" font-family="Georgia, 'Times New Roman', serif" font-size="20" font-weight="700">B. Estimated cost</text>
<text x="453" y="148" fill="#5C6773" font-family="'Helvetica Neue', Arial, sans-serif" font-size="12">Values are shown in cents.</text>
<line x1="481" y1="452.0" x2="785" y2="452.0" stroke="#E9EDF3" />
<text x="473" y="456.0" fill="#5C6773" font-family="'Helvetica Neue', Arial, sans-serif" font-size="11" text-anchor="end">0</text>
<line x1="481" y1="381.0" x2="785" y2="381.0" stroke="#E9EDF3" />
<text x="473" y="385.0" fill="#5C6773" font-family="'Helvetica Neue', Arial, sans-serif" font-size="11" text-anchor="end">2</text>
<line x1="481" y1="310.0" x2="785" y2="310.0" stroke="#E9EDF3" />
<text x="473" y="314.0" fill="#5C6773" font-family="'Helvetica Neue', Arial, sans-serif" font-size="11" text-anchor="end">4</text>
<line x1="481" y1="239.0" x2="785" y2="239.0" stroke="#E9EDF3" />
<text x="473" y="243.0" fill="#5C6773" font-family="'Helvetica Neue', Arial, sans-serif" font-size="11" text-anchor="end">6</text>
<line x1="481" y1="168.0" x2="785" y2="168.0" stroke="#E9EDF3" />
<text x="473" y="172.0" fill="#5C6773" font-family="'Helvetica Neue', Arial, sans-serif" font-size="11" text-anchor="end">8</text>
<line x1="564.5" y1="444.6799" x2="564.5" y2="326.4578" stroke="#1F6F78" stroke-width="1.5" />
<rect x="542.5" y="423.9274875" width="44" height="18.403200000000027" rx="8" fill="#E7F2F3" stroke="#1F6F78" stroke-width="1.5" />
<line x1="542.5" y1="434.75765" x2="586.5" y2="434.75765" stroke="#1F6F78" stroke-width="2" />
<line x1="552.5" y1="444.6799" x2="576.5" y2="444.6799" stroke="#1F6F78" stroke-width="1.5" />
<line x1="552.5" y1="326.4578" x2="576.5" y2="326.4578" stroke="#1F6F78" stroke-width="1.5" />
<circle cx="550.5" cy="421.60845" r="3.1" fill="#1F6F78" opacity="0.72" />
<circle cx="554.5" cy="408.2072" r="3.1" fill="#1F6F78" opacity="0.72" />
<circle cx="558.5" cy="424.7005" r="3.1" fill="#1F6F78" opacity="0.72" />
<circle cx="562.5" cy="425.9785" r="3.1" fill="#1F6F78" opacity="0.72" />
<circle cx="566.5" cy="427.3488" r="3.1" fill="#1F6F78" opacity="0.72" />
<circle cx="570.5" cy="433.47255" r="3.1" fill="#1F6F78" opacity="0.72" />
<circle cx="574.5" cy="428.38895" r="3.1" fill="#1F6F78" opacity="0.72" />
<circle cx="578.5" cy="433.9234" r="3.1" fill="#1F6F78" opacity="0.72" />
<circle cx="550.5" cy="435.5919" r="3.1" fill="#1F6F78" opacity="0.72" />
<circle cx="554.5" cy="443.8279" r="3.1" fill="#1F6F78" opacity="0.72" />
<circle cx="558.5" cy="444.58050000000003" r="3.1" fill="#1F6F78" opacity="0.72" />
<circle cx="562.5" cy="442.3653" r="3.1" fill="#1F6F78" opacity="0.72" />
<circle cx="566.5" cy="442.31915" r="3.1" fill="#1F6F78" opacity="0.72" />
<circle cx="570.5" cy="444.6799" r="3.1" fill="#1F6F78" opacity="0.72" />
<circle cx="574.5" cy="442.9546" r="3.1" fill="#1F6F78" opacity="0.72" />
<circle cx="578.5" cy="442.83035" r="3.1" fill="#1F6F78" opacity="0.72" />
<circle cx="550.5" cy="331.6408" r="3.1" fill="#1F6F78" opacity="0.72" />
<circle cx="554.5" cy="347.65840000000003" r="3.1" fill="#1F6F78" opacity="0.72" />
<circle cx="558.5" cy="342.59255" r="3.1" fill="#1F6F78" opacity="0.72" />
<circle cx="562.5" cy="326.4578" r="3.1" fill="#1F6F78" opacity="0.72" />
<circle cx="566.5" cy="440.0862" r="3.1" fill="#1F6F78" opacity="0.72" />
<circle cx="570.5" cy="438.76915" r="3.1" fill="#1F6F78" opacity="0.72" />
<circle cx="574.5" cy="440.8601" r="3.1" fill="#1F6F78" opacity="0.72" />
<circle cx="578.5" cy="440.89205" r="3.1" fill="#1F6F78" opacity="0.72" />
<line x1="701.4" y1="432.79805" x2="701.4" y2="189.85735" stroke="#B35B3E" stroke-width="1.5" />
<rect x="679.4" y="378.7892375" width="44" height="40.66258749999997" rx="8" fill="#F8EAE5" stroke="#B35B3E" stroke-width="1.5" />
<line x1="679.4" y1="394.94085" x2="723.4" y2="394.94085" stroke="#B35B3E" stroke-width="2" />
<line x1="689.4" y1="432.79805" x2="713.4" y2="432.79805" stroke="#B35B3E" stroke-width="1.5" />
<line x1="689.4" y1="189.85735" x2="713.4" y2="189.85735" stroke="#B35B3E" stroke-width="1.5" />
<circle cx="687.4" cy="387.01725" r="3.1" fill="#B35B3E" opacity="0.72" />
<circle cx="691.4" cy="393.87585" r="3.1" fill="#B35B3E" opacity="0.72" />
<circle cx="695.4" cy="393.38595" r="3.1" fill="#B35B3E" opacity="0.72" />
<circle cx="699.4" cy="381.6106" r="3.1" fill="#B35B3E" opacity="0.72" />
<circle cx="703.4" cy="390.9613" r="3.1" fill="#B35B3E" opacity="0.72" />
<circle cx="707.4" cy="333.9412" r="3.1" fill="#B35B3E" opacity="0.72" />
<circle cx="711.4" cy="370.32515" r="3.1" fill="#B35B3E" opacity="0.72" />
<circle cx="715.4" cy="393.4889" r="3.1" fill="#B35B3E" opacity="0.72" />
<circle cx="687.4" cy="423.97275" r="3.1" fill="#B35B3E" opacity="0.72" />
<circle cx="691.4" cy="414.3771" r="3.1" fill="#B35B3E" opacity="0.72" />
<circle cx="695.4" cy="417.94485" r="3.1" fill="#B35B3E" opacity="0.72" />
<circle cx="699.4" cy="425.8152" r="3.1" fill="#B35B3E" opacity="0.72" />
<circle cx="703.4" cy="429.6634" r="3.1" fill="#B35B3E" opacity="0.72" />
<circle cx="707.4" cy="430.0681" r="3.1" fill="#B35B3E" opacity="0.72" />
<circle cx="711.4" cy="428.144" r="3.1" fill="#B35B3E" opacity="0.72" />
<circle cx="715.4" cy="432.79805" r="3.1" fill="#B35B3E" opacity="0.72" />
<circle cx="687.4" cy="189.85735" r="3.1" fill="#B35B3E" opacity="0.72" />
<circle cx="691.4" cy="317.34495000000004" r="3.1" fill="#B35B3E" opacity="0.72" />
<circle cx="695.4" cy="330.52965" r="3.1" fill="#B35B3E" opacity="0.72" />
<circle cx="699.4" cy="316.106" r="3.1" fill="#B35B3E" opacity="0.72" />
<circle cx="703.4" cy="407.17415" r="3.1" fill="#B35B3E" opacity="0.72" />
<circle cx="707.4" cy="396.00585" r="3.1" fill="#B35B3E" opacity="0.72" />
<circle cx="711.4" cy="405.86775" r="3.1" fill="#B35B3E" opacity="0.72" />
<circle cx="715.4" cy="402.1935" r="3.1" fill="#B35B3E" opacity="0.72" />
<rect x="435" y="96" width="370" height="390" rx="16" fill="none" stroke="#D8DEE7" />
<rect x="830" y="96" width="370" height="390" rx="16" fill="#FFFFFF" stroke="#D8DEE7" />
<text x="848" y="126" fill="#17202A" font-family="Georgia, 'Times New Roman', serif" font-size="20" font-weight="700">C. Latency</text>
<text x="848" y="148" fill="#5C6773" font-family="'Helvetica Neue', Arial, sans-serif" font-size="12">Values are shown in seconds.</text>
<line x1="876" y1="452.0" x2="1180" y2="452.0" stroke="#E9EDF3" />
<text x="868" y="456.0" fill="#5C6773" font-family="'Helvetica Neue', Arial, sans-serif" font-size="11" text-anchor="end">0</text>
<line x1="876" y1="381.0" x2="1180" y2="381.0" stroke="#E9EDF3" />
<text x="868" y="385.0" fill="#5C6773" font-family="'Helvetica Neue', Arial, sans-serif" font-size="11" text-anchor="end">50</text>
<line x1="876" y1="310.0" x2="1180" y2="310.0" stroke="#E9EDF3" />
<text x="868" y="314.0" fill="#5C6773" font-family="'Helvetica Neue', Arial, sans-serif" font-size="11" text-anchor="end">100</text>
<line x1="876" y1="239.0" x2="1180" y2="239.0" stroke="#E9EDF3" />
<text x="868" y="243.0" fill="#5C6773" font-family="'Helvetica Neue', Arial, sans-serif" font-size="11" text-anchor="end">150</text>
<line x1="876" y1="168.0" x2="1180" y2="168.0" stroke="#E9EDF3" />
<text x="868" y="172.0" fill="#5C6773" font-family="'Helvetica Neue', Arial, sans-serif" font-size="11" text-anchor="end">200</text>
<line x1="959.5" y1="434.50844" x2="959.5" y2="250.38413999999997" stroke="#1F6F78" stroke-width="1.5" />
<rect x="937.5" y="398.4092" width="44" height="27.644560000000013" rx="8" fill="#E7F2F3" stroke="#1F6F78" stroke-width="1.5" />
<line x1="937.5" y1="415.26034" x2="981.5" y2="415.26034" stroke="#1F6F78" stroke-width="2" />
<line x1="947.5" y1="434.50844" x2="971.5" y2="434.50844" stroke="#1F6F78" stroke-width="1.5" />
<line x1="947.5" y1="250.38413999999997" x2="971.5" y2="250.38413999999997" stroke="#1F6F78" stroke-width="1.5" />
<circle cx="945.5" cy="389.42912" r="3.1" fill="#1F6F78" opacity="0.72" />
<circle cx="949.5" cy="383.52476" r="3.1" fill="#1F6F78" opacity="0.72" />
<circle cx="953.5" cy="403.7058" r="3.1" fill="#1F6F78" opacity="0.72" />
<circle cx="957.5" cy="403.76828" r="3.1" fill="#1F6F78" opacity="0.72" />
<circle cx="961.5" cy="401.40256" r="3.1" fill="#1F6F78" opacity="0.72" />
<circle cx="965.5" cy="414.82724" r="3.1" fill="#1F6F78" opacity="0.72" />
<circle cx="969.5" cy="405.97922" r="3.1" fill="#1F6F78" opacity="0.72" />
<circle cx="973.5" cy="415.69344" r="3.1" fill="#1F6F78" opacity="0.72" />
<circle cx="945.5" cy="409.57892" r="3.1" fill="#1F6F78" opacity="0.72" />
<circle cx="949.5" cy="430.25128" r="3.1" fill="#1F6F78" opacity="0.72" />
<circle cx="953.5" cy="432.08734" r="3.1" fill="#1F6F78" opacity="0.72" />
<circle cx="957.5" cy="425.34518" r="3.1" fill="#1F6F78" opacity="0.72" />
<circle cx="961.5" cy="425.9714" r="3.1" fill="#1F6F78" opacity="0.72" />
<circle cx="965.5" cy="434.50844" r="3.1" fill="#1F6F78" opacity="0.72" />
<circle cx="969.5" cy="430.26974" r="3.1" fill="#1F6F78" opacity="0.72" />
<circle cx="973.5" cy="427.44962" r="3.1" fill="#1F6F78" opacity="0.72" />
<circle cx="945.5" cy="267.9751" r="3.1" fill="#1F6F78" opacity="0.72" />
<circle cx="949.5" cy="292.73564" r="3.1" fill="#1F6F78" opacity="0.72" />
<circle cx="953.5" cy="288.24702" r="3.1" fill="#1F6F78" opacity="0.72" />
<circle cx="957.5" cy="250.38413999999997" r="3.1" fill="#1F6F78" opacity="0.72" />
<circle cx="961.5" cy="421.5197" r="3.1" fill="#1F6F78" opacity="0.72" />
<circle cx="965.5" cy="423.21802" r="3.1" fill="#1F6F78" opacity="0.72" />
<circle cx="969.5" cy="426.30084" r="3.1" fill="#1F6F78" opacity="0.72" />
<circle cx="973.5" cy="423.19104" r="3.1" fill="#1F6F78" opacity="0.72" />
<line x1="1096.4" y1="403.42748" x2="1096.4" y2="187.68545999999998" stroke="#B35B3E" stroke-width="1.5" />
<rect x="1074.4" y="315.656215" width="44" height="60.07594000000006" rx="8" fill="#F8EAE5" stroke="#B35B3E" stroke-width="1.5" />
<line x1="1074.4" y1="344.80349" x2="1118.4" y2="344.80349" stroke="#B35B3E" stroke-width="2" />
<line x1="1084.4" y1="403.42748" x2="1108.4" y2="403.42748" stroke="#B35B3E" stroke-width="1.5" />
<line x1="1084.4" y1="187.68545999999998" x2="1108.4" y2="187.68545999999998" stroke="#B35B3E" stroke-width="1.5" />
<circle cx="1082.4" cy="342.1701" r="3.1" fill="#B35B3E" opacity="0.72" />
<circle cx="1086.4" cy="333.2383" r="3.1" fill="#B35B3E" opacity="0.72" />
<circle cx="1090.4" cy="315.69846" r="3.1" fill="#B35B3E" opacity="0.72" />
<circle cx="1094.4" cy="315.52948000000004" r="3.1" fill="#B35B3E" opacity="0.72" />
<circle cx="1098.4" cy="346.86746" r="3.1" fill="#B35B3E" opacity="0.72" />
<circle cx="1102.4" cy="286.46492" r="3.1" fill="#B35B3E" opacity="0.72" />
<circle cx="1106.4" cy="333.71542" r="3.1" fill="#B35B3E" opacity="0.72" />
<circle cx="1110.4" cy="354.4105" r="3.1" fill="#B35B3E" opacity="0.72" />
<circle cx="1082.4" cy="390.60914" r="3.1" fill="#B35B3E" opacity="0.72" />
<circle cx="1086.4" cy="360.65282" r="3.1" fill="#B35B3E" opacity="0.72" />
<circle cx="1090.4" cy="370.77316" r="3.1" fill="#B35B3E" opacity="0.72" />
<circle cx="1094.4" cy="392.76328" r="3.1" fill="#B35B3E" opacity="0.72" />
<circle cx="1098.4" cy="393.60392" r="3.1" fill="#B35B3E" opacity="0.72" />
<circle cx="1102.4" cy="396.8117" r="3.1" fill="#B35B3E" opacity="0.72" />
<circle cx="1106.4" cy="392.573" r="3.1" fill="#B35B3E" opacity="0.72" />
<circle cx="1110.4" cy="403.42748" r="3.1" fill="#B35B3E" opacity="0.72" />
<circle cx="1082.4" cy="251.97027999999997" r="3.1" fill="#B35B3E" opacity="0.72" />
<circle cx="1086.4" cy="197.99892" r="3.1" fill="#B35B3E" opacity="0.72" />
<circle cx="1090.4" cy="226.15468" r="3.1" fill="#B35B3E" opacity="0.72" />
<circle cx="1094.4" cy="187.68545999999998" r="3.1" fill="#B35B3E" opacity="0.72" />
<circle cx="1098.4" cy="338.39148" r="3.1" fill="#B35B3E" opacity="0.72" />
<circle cx="1102.4" cy="342.73951999999997" r="3.1" fill="#B35B3E" opacity="0.72" />
<circle cx="1106.4" cy="363.03984" r="3.1" fill="#B35B3E" opacity="0.72" />
<circle cx="1110.4" cy="359.77384" r="3.1" fill="#B35B3E" opacity="0.72" />
<rect x="830" y="96" width="370" height="390" rx="16" fill="none" stroke="#D8DEE7" />
</svg>